<svg xmlns="http://www.w3.org/2000/svg" width="13" height="14" viewBox="0 0 13 14">
  <metadata><?xpacket begin="﻿" id="W5M0MpCehiHzreSzNTczkc9d"?>
<x:xmpmeta xmlns:x="adobe:ns:meta/" x:xmptk="Adobe XMP Core 5.6-c138 79.159824, 2016/09/14-01:09:01        ">
   <rdf:RDF xmlns:rdf="http://www.w3.org/1999/02/22-rdf-syntax-ns#">
      <rdf:Description rdf:about=""/>
   </rdf:RDF>
</x:xmpmeta>
                                                                                                    
                                                                                                    
                                                                                                    
                                                                                                    
                                                                                                    
                                                                                                    
                                                                                                    
                                                                                                    
                                                                                                    
                                                                                                    
                                                                                                    
                                                                                                    
                                                                                                    
                                                                                                    
                                                                                                    
                                                                                                    
                                                                                                    
                                                                                                    
                                                                                                    
                                                                                                    
                           
<?xpacket end="w"?></metadata>
<defs>
    <style>
      .cls-1 {
        fill: #fff;
        fill-rule: evenodd;
      }
    </style>
  </defs>
  <path id="icon-rss" class="cls-1" d="M278.043,1445.09a1.777,1.777,0,1,0-1.771,1.91,1.848,1.848,0,0,0,1.771-1.91h0Zm4.724,1.22a9.241,9.241,0,0,0-2.417-5.61,8.016,8.016,0,0,0-5.213-2.61H275.09a0.542,0.542,0,0,0-.4.17,0.633,0.633,0,0,0-.194.47v1.34a0.614,0.614,0,0,0,.535.63,6.136,6.136,0,0,1,5.315,5.72,0.6,0.6,0,0,0,.581.58h1.246a0.541,0.541,0,0,0,.433-0.21,0.676,0.676,0,0,0,.157-0.48h0Zm4.732,0.02a14.538,14.538,0,0,0-3.827-9.21,12.577,12.577,0,0,0-8.554-4.12H275.09a0.552,0.552,0,0,0-.406.18,0.641,0.641,0,0,0-.184.46v1.42a0.605,0.605,0,0,0,.554.62c5.36,0.34,9.633,4.95,9.937,10.72a0.611,0.611,0,0,0,.591.6H286.9a0.544,0.544,0,0,0,.424-0.2,0.646,0.646,0,0,0,.174-0.47h0Z" transform="translate(-274.5 -1433)"/>
</svg>
