<svg xmlns="http://www.w3.org/2000/svg" width="15" height="13" viewBox="0 0 15 13">
  <metadata><?xpacket begin="﻿" id="W5M0MpCehiHzreSzNTczkc9d"?>
<x:xmpmeta xmlns:x="adobe:ns:meta/" x:xmptk="Adobe XMP Core 5.6-c138 79.159824, 2016/09/14-01:09:01        ">
   <rdf:RDF xmlns:rdf="http://www.w3.org/1999/02/22-rdf-syntax-ns#">
      <rdf:Description rdf:about=""/>
   </rdf:RDF>
</x:xmpmeta>
                                                                                                    
                                                                                                    
                                                                                                    
                                                                                                    
                                                                                                    
                                                                                                    
                                                                                                    
                                                                                                    
                                                                                                    
                                                                                                    
                                                                                                    
                                                                                                    
                                                                                                    
                                                                                                    
                                                                                                    
                                                                                                    
                                                                                                    
                                                                                                    
                                                                                                    
                                                                                                    
                           
<?xpacket end="w"?></metadata>
<defs>
    <style>
      .cls-1 {
        fill: #fff;
        fill-rule: evenodd;
      }
    </style>
  </defs>
  <path id="icon-twitter" class="cls-1" d="M288.5,1326.04a5.64,5.64,0,0,1-1.769.51,3.2,3.2,0,0,0,1.352-1.81,5.914,5.914,0,0,1-1.951.8,2.985,2.985,0,0,0-2.247-1.04,3.179,3.179,0,0,0-3.074,3.28,3.894,3.894,0,0,0,.076.75,8.565,8.565,0,0,1-6.34-3.43,3.432,3.432,0,0,0-.419,1.65,3.354,3.354,0,0,0,1.371,2.74,3,3,0,0,1-1.39-.42v0.04a3.228,3.228,0,0,0,2.466,3.22,3.1,3.1,0,0,1-.809.11,3.692,3.692,0,0,1-.581-0.05,3.116,3.116,0,0,0,2.875,2.28,5.937,5.937,0,0,1-3.818,1.4,6.041,6.041,0,0,1-.742-0.04,8.326,8.326,0,0,0,4.721,1.47c5.655,0,8.748-5,8.748-9.33,0-.15,0-0.29-0.009-0.43a6.886,6.886,0,0,0,1.54-1.7h0Z" transform="translate(-273.5 -1324.5)"/>
</svg>
