<svg xmlns="http://www.w3.org/2000/svg" width="15" height="14" viewBox="0 0 15 14">
  <metadata><?xpacket begin="﻿" id="W5M0MpCehiHzreSzNTczkc9d"?>
<x:xmpmeta xmlns:x="adobe:ns:meta/" x:xmptk="Adobe XMP Core 5.6-c138 79.159824, 2016/09/14-01:09:01        ">
   <rdf:RDF xmlns:rdf="http://www.w3.org/1999/02/22-rdf-syntax-ns#">
      <rdf:Description rdf:about=""/>
   </rdf:RDF>
</x:xmpmeta>
                                                                                                    
                                                                                                    
                                                                                                    
                                                                                                    
                                                                                                    
                                                                                                    
                                                                                                    
                                                                                                    
                                                                                                    
                                                                                                    
                                                                                                    
                                                                                                    
                                                                                                    
                                                                                                    
                                                                                                    
                                                                                                    
                                                                                                    
                                                                                                    
                                                                                                    
                                                                                                    
                           
<?xpacket end="w"?></metadata>
<defs>
    <style>
      .cls-1 {
        fill: #fff;
        fill-rule: evenodd;
      }
    </style>
  </defs>
  <path id="icon-linkedin" class="cls-1" d="M276.725,1274.43h-3.042V1284h3.042v-9.57h0Zm0.214-2.96a1.588,1.588,0,0,0-1.716-1.47,1.651,1.651,0,1,0-.036,3.3h0.018a1.621,1.621,0,0,0,1.734-1.65v-0.18h0Zm11.561,6.97c0-2.82-1.5-4.05-3.548-4.05a2.966,2.966,0,0,0-3.045,1.43l0.021,0.02v-1.26h-3.35s0.041,0.81,0,9.35h3.35v-5.34a2.245,2.245,0,0,1,.112-0.78,1.829,1.829,0,0,1,1.72-1.16c1.212,0,1.7.88,1.7,2.16v5.12H288.5v-5.49h0Z" transform="translate(-273.5 -1270)"/>
</svg>
