<svg xmlns="http://www.w3.org/2000/svg" width="15" height="15" viewBox="0 0 15 15">
  <metadata><?xpacket begin="﻿" id="W5M0MpCehiHzreSzNTczkc9d"?>
<x:xmpmeta xmlns:x="adobe:ns:meta/" x:xmptk="Adobe XMP Core 5.6-c138 79.159824, 2016/09/14-01:09:01        ">
   <rdf:RDF xmlns:rdf="http://www.w3.org/1999/02/22-rdf-syntax-ns#">
      <rdf:Description rdf:about=""/>
   </rdf:RDF>
</x:xmpmeta>
                                                                                                    
                                                                                                    
                                                                                                    
                                                                                                    
                                                                                                    
                                                                                                    
                                                                                                    
                                                                                                    
                                                                                                    
                                                                                                    
                                                                                                    
                                                                                                    
                                                                                                    
                                                                                                    
                                                                                                    
                                                                                                    
                                                                                                    
                                                                                                    
                                                                                                    
                                                                                                    
                           
<?xpacket end="w"?></metadata>
<defs>
    <style>
      .cls-1 {
        fill: #fff;
        fill-rule: evenodd;
      }
    </style>
  </defs>
  <path id="icon-pinterest" class="cls-1" d="M288.5,1387.38c0-4.25-3.514-7.88-7.388-7.88a7.776,7.776,0,0,0-7.612,7.88,6.6,6.6,0,0,0,4.557,6.62,4.136,4.136,0,0,1,.127-1.37s0.147-.48.974-4.13a3.4,3.4,0,0,1-.249-1.26c0-1.17.658-2.05,1.475-2.05a1.058,1.058,0,0,1,1.036,1.2,17.438,17.438,0,0,1-.677,2.8,1.2,1.2,0,0,0,1.086,1.53c1.127,0,1.884-1.93,1.884-4.21,0-1.67-.881-2.74-2.521-2.74a3.432,3.432,0,0,0-3.743,3.49,2.382,2.382,0,0,0,.5,1.56,0.4,0.4,0,0,1,.108.44c-0.04.15-.118,0.5-0.157,0.63a0.259,0.259,0,0,1-.373.21,3.035,3.035,0,0,1-1.733-3.03,5.494,5.494,0,0,1,5.607-5.16,5.415,5.415,0,0,1,4.805,4.75c0,3.11-2.227,5.43-4.246,5.43a2.1,2.1,0,0,1-1.7-.99c-0.449,1.62-.538,1.88-0.538,1.88a4.588,4.588,0,0,1-.778,1.27,9.654,9.654,0,0,0,2.173.25,7.107,7.107,0,0,0,7.388-7.12h0Z" transform="translate(-273.5 -1379.5)"/>
</svg>
